HIERARCHY
ROOT root
{
	OFFSET 0.000000 0.000000 0.000000
	CHANNELS 6 Xposition Yposition Zposition Zrotation Yrotation Xrotation
	JOINT lhip
	{
		OFFSET 0.058581 -0.082280 -0.017664
		CHANNELS 3 Zrotation Yrotation Xrotation
		JOINT lknee
		{
			OFFSET 0.043451 -0.386469 0.008037
			CHANNELS 3 Zrotation Yrotation Xrotation
			JOINT lankle
			{
				OFFSET -0.014790 -0.426874 -0.037428
				CHANNELS 3 Zrotation Yrotation Xrotation
				JOINT ltoe
				{
					OFFSET 0.041054 -0.060286 0.122042
					CHANNELS 3 Zrotation Yrotation Xrotation
					End Site
					{
						OFFSET 0.000000 0.000000 0.000000
					}
				}
			}
		}
	}
	JOINT rhip
	{
		OFFSET -0.060310 -0.090513 -0.013543
		CHANNELS 3 Zrotation Yrotation Xrotation
		JOINT rknee
		{
			OFFSET -0.043257 -0.383688 -0.004843
			CHANNELS 3 Zrotation Yrotation Xrotation
			JOINT rankle
			{
				OFFSET 0.019056 -0.420046 -0.034562
				CHANNELS 3 Zrotation Yrotation Xrotation
				JOINT rtoe
				{
					OFFSET -0.034840 -0.062106 0.130323
					CHANNELS 3 Zrotation Yrotation Xrotation
					End Site
					{
						OFFSET 0.000000 0.000000 0.000000
					}
				}
			}
		}
	}
	JOINT lowerback
	{
		OFFSET 0.004439 0.124404 -0.038385
		CHANNELS 3 Zrotation Yrotation Xrotation
		JOINT upperback
		{
			OFFSET 0.004488 0.137956 0.026820
			CHANNELS 3 Zrotation Yrotation Xrotation
			JOINT chest
			{
				OFFSET -0.002265 0.056032 0.002855
				CHANNELS 3 Zrotation Yrotation Xrotation
				JOINT lowerneck
				{
					OFFSET -0.013390 0.211636 -0.033468
					CHANNELS 3 Zrotation Yrotation Xrotation
					JOINT upperneck
					{
						OFFSET 0.010113 0.088937 0.050410
						CHANNELS 3 Zrotation Yrotation Xrotation
						End Site
						{
							OFFSET 0.000000 0.000000 0.000000
						}
					}
				}
				JOINT lclavicle
				{
					OFFSET 0.071702 0.114000 -0.018898
					CHANNELS 3 Zrotation Yrotation Xrotation
					JOINT lshoulder
					{
						OFFSET 0.122921 0.045205 -0.019046
						CHANNELS 3 Zrotation Yrotation Xrotation
						JOINT lelbow
						{
							OFFSET 0.255332 -0.015649 -0.022946
							CHANNELS 3 Zrotation Yrotation Xrotation
							JOINT lwrist
							{
								OFFSET 0.265709 0.012698 -0.007375
								CHANNELS 3 Zrotation Yrotation Xrotation
								End Site
								{
									OFFSET 0.000000 0.000000 0.000000
								}
							}
						}
					}
				}
				JOINT rclavicle
				{
					OFFSET -0.082954 0.112472 -0.023707
					CHANNELS 3 Zrotation Yrotation Xrotation
					JOINT rshoulder
					{
						OFFSET -0.113228 0.046853 -0.008472
						CHANNELS 3 Zrotation Yrotation Xrotation
						JOINT relbow
						{
							OFFSET -0.260127 -0.014369 -0.031269
							CHANNELS 3 Zrotation Yrotation Xrotation
							JOINT rwrist
							{
								OFFSET -0.269108 0.006794 -0.006027
								CHANNELS 3 Zrotation Yrotation Xrotation
								End Site
								{
									OFFSET 0.000000 0.000000 0.000000
								}
							}
						}
					}
				}
			}
		}
	}
}
MOTION
Frames: 5
Frame Time: 0.033333
1.833240 0.331663 0.988654 0.005048 5.738882 91.531592 2.389906 -2.177109 -3.998759 -2.282315 -3.269704 5.036767 11.166366 10.383118 -22.650644 0.000000 -0.000000 0.000000 5.729226 5.814051 -3.726131 4.249951 3.555373 5.031355 -1.282030 -11.906375 -8.394325 0.000000 -0.000000 0.000000 3.028967 0.074461 -3.205185 3.322513 -2.205966 1.366344 -0.771627 -0.017401 -4.115497 7.222347 -0.801159 -11.742114 4.956217 -6.515057 11.169199 -34.570508 -8.931897 14.787671 -53.235703 -2.827345 14.987785 4.724588 -24.312194 15.504320 -11.602917 -21.510630 -6.469336 29.851388 9.871284 12.931644 56.899469 -1.406271 7.972010 -12.740270 13.624292 -8.126657 20.544783 17.045159 -33.936721 
1.832863 0.337005 0.987904 0.584393 6.089597 92.004966 2.836644 -2.811524 -5.824025 -2.325236 -3.215126 7.075555 10.849274 10.749007 -23.123974 0.000000 -0.000000 0.000000 6.053721 6.407638 -7.003235 4.372446 2.179524 9.927805 -0.888004 -11.966281 -9.857891 0.000000 -0.000000 0.000000 2.248506 -0.338229 -1.896451 3.906062 -2.494471 1.060481 -0.234091 -0.412004 -4.126374 8.771971 1.178617 -14.495237 5.292576 -7.426422 10.261231 -34.667362 -10.409125 14.539053 -52.237854 -3.403327 15.596431 4.523232 -26.963225 17.531890 -16.088430 -21.472648 -4.544946 30.626789 10.815674 12.575212 55.027540 0.027228 8.122865 -14.202027 15.354755 -6.728908 24.153160 16.831600 -30.919035 
1.832869 0.343311 0.986223 0.720781 6.097843 92.537934 2.975195 -3.889498 -7.934406 -2.427620 -2.953181 9.489895 10.765723 11.803108 -23.656436 0.000000 -0.000000 0.000000 5.508511 6.871609 -10.835163 5.000796 0.791289 15.546650 -0.088235 -11.628506 -10.916662 0.000000 -0.000000 0.000000 1.083740 -0.517602 -0.357088 4.477794 -2.707772 0.358690 0.359142 -0.910695 -3.878590 10.414670 3.085882 -16.883194 5.983057 -7.697633 9.113429 -34.170380 -11.392388 13.960463 -51.110065 -4.286316 16.306631 3.886735 -30.888652 19.616194 -20.018147 -21.808868 -4.144228 31.032410 11.160296 11.509565 52.671778 1.938324 9.084918 -15.395644 17.994175 -4.176230 26.905543 15.361044 -26.719401 
1.830814 0.348890 0.984313 -0.020703 6.260680 92.761789 3.585503 -4.416779 -9.468302 -2.772589 -2.440098 11.552846 10.853571 12.932266 -24.221544 0.000000 -0.000000 0.000000 4.856905 7.416350 -14.615285 6.067679 -0.844777 21.552362 0.915157 -10.720346 -10.886133 0.000000 -0.000000 0.000000 -0.303111 -0.382815 1.219925 5.146904 -2.674054 0.195861 1.181443 -1.162935 -4.215434 11.788975 4.346104 -17.907269 7.355280 -7.069013 7.328995 -33.410502 -12.144116 13.608545 -49.661744 -5.056710 16.531345 2.760132 -36.206878 20.205622 -23.267361 -22.933512 -5.708752 31.448123 11.495654 10.543431 50.112558 3.975462 9.759713 -16.878021 21.423792 -3.533203 29.173638 13.868643 -22.454844 
1.831425 0.356852 0.981274 -0.435948 6.211958 93.779426 3.819858 -5.368131 -12.171026 -2.890042 -1.804897 13.927521 11.399132 14.112909 -24.622908 0.000000 -0.000000 0.000000 2.937580 7.041614 -19.986880 7.528489 -3.434784 28.244884 3.146059 -8.896391 -9.296754 0.000000 -0.000000 0.000000 -0.944657 -0.245521 2.089394 5.560245 -2.618452 -0.157111 1.376221 -1.213960 -4.365944 13.003702 5.381920 -18.788282 8.778958 -6.040810 5.715367 -32.853274 -12.808452 13.118238 -47.781512 -6.128794 16.801833 1.186116 -41.966447 18.855118 -22.674472 -24.423811 -9.757305 31.662613 11.591041 9.764894 47.696592 5.857950 9.781300 -19.105943 26.583958 -6.574559 28.514268 13.770240 -21.635431 
